<?xml version="1.0" encoding="UTF-8"?>
<svg id="_レイヤー_2" data-name="レイヤー 2" xmlns="http://www.w3.org/2000/svg" viewBox="0 0 179.21 179.21">
  <defs>
    <style>
      .cls-1 {
        fill: #947154;
      }

      .cls-2 {
        fill: #fff;
      }

      .cls-3 {
        fill: none;
      }

      .cls-4 {
        fill: #e29554;
      }

      .cls-5 {
        fill: #efcbaf;
      }
    </style>
  </defs>
  <g id="_レイヤー_1-2" data-name="レイヤー 1">
    <g>
      <rect class="cls-3" width="179.21" height="179.21"/>
      <g>
        <path class="cls-1" d="M128.45,113.9c-.24-.22-.55-.33-.87-.31-5.47.41-10.89,1.01-16.57,1.84-.56.09-.97.58-.97,1.15v22.25c.03,2.41,1.99,4.34,4.4,4.33h3.91c5.72.05,10.41-4.54,10.47-10.26v-18.16c0-.32-.13-.63-.37-.84Z"/>
        <path class="cls-4" d="M140.04,67.37c-21.84-.5-43.49-4.14-64.28-10.82-.35-.12-.74-.06-1.04.16-.3.22-.48.56-.48.93v67.3c0,.64.52,1.15,1.15,1.15.12,0,.25-.02.37-.06,11.6-3.82,23.51-6.6,35.61-8.29,5.61-.83,10.98-1.43,16.4-1.84,3.91-.32,8.05-.55,12.28-.69.62-.02,1.11-.53,1.11-1.15v-45.54c0-.62-.49-1.13-1.11-1.15h0Z"/>
        <path class="cls-5" d="M58.81,76.26c-.32-.22-.73-.25-1.08-.1-9.07,3.68-13.44,14.01-9.76,23.08,1.8,4.44,5.32,7.96,9.76,9.76.58.25,1.26-.01,1.51-.59.06-.15.1-.3.1-.46v-30.72c0-.39-.2-.75-.53-.96Z"/>
        <path class="cls-2" d="M58.2,109.09h-.02v-2.3l.02,2.3ZM58.2,78.37h-.02v-2.3l.02,2.3Z"/>
        <path class="cls-2" d="M33.37,93.74h-16.25c-.64,0-1.15-.52-1.15-1.15s.52-1.15,1.15-1.15h16.25c.64,0,1.15.52,1.15,1.15s-.52,1.15-1.15,1.15ZM36.07,81.2c-.16,0-.32-.03-.46-.1l-15.03-6.55c-.58-.25-.85-.93-.59-1.52.25-.58.93-.85,1.52-.59l15.03,6.55c.58.25.85.93.6,1.51-.18.42-.6.7-1.06.69h0ZM43.66,70.87c-.32,0-.63-.13-.85-.37l-11.11-12.08c-.43-.47-.4-1.2.07-1.63s1.2-.4,1.63.07h0l11.11,12.08c.43.47.4,1.2-.07,1.63-.21.19-.49.3-.78.3h0ZM33.37,128.31c-.64,0-1.15-.51-1.15-1.15,0-.29.11-.57.3-.78l10.57-11.47c.43-.47,1.16-.5,1.63-.07.47.43.5,1.16.07,1.63l-10.56,11.47c-.22.24-.53.37-.85.37h0ZM21.49,112.7c-.64,0-1.15-.51-1.15-1.15,0-.46.27-.88.69-1.06l14.62-6.37c.58-.25,1.26.01,1.52.59s-.01,1.26-.59,1.52h0l-14.62,6.37c-.15.06-.3.1-.46.1Z"/>
        <path class="cls-1" d="M65.02,52.5c-2.93-1.24-6.3.13-7.54,3.05-.3.71-.45,1.47-.46,2.24v66.99c0,3.18,2.58,5.75,5.76,5.75.77,0,1.53-.16,2.24-.46,3.78-1.59,7.61-3.02,11.51-4.3V56.81c-3.89-1.28-7.73-2.72-11.51-4.31ZM163.24,90.61c-.01-12.85-10.44-23.25-23.29-23.24-.37,0-.73,0-1.1.03v47.78c12.83.62,23.74-9.28,24.36-22.11.02-.37.03-.73.03-1.1v-1.36Z"/>
      </g>
    </g>
  </g>
</svg>