<?xml version="1.0" encoding="UTF-8"?>
<svg id="_レイヤー_2" data-name="レイヤー 2" xmlns="http://www.w3.org/2000/svg" viewBox="0 0 179.21 179.21">
  <defs>
    <style>
      .cls-1 {
        fill: #fff;
      }

      .cls-2 {
        fill: #bcbcbc;
      }

      .cls-3 {
        fill: none;
      }

      .cls-4 {
        fill: #f9c99e;
      }

      .cls-5 {
        fill: #7e7e7e;
      }

      .cls-6 {
        fill: #e29554;
      }
    </style>
  </defs>
  <g id="_レイヤー_1-2" data-name="レイヤー 1">
    <g>
      <rect class="cls-3" width="179.21" height="179.21"/>
      <g>
        <path class="cls-4" d="M83.31,89.47c0-1.16.94-2.1,2.1-2.1h12.58v-14.66c0-1.16-.94-2.1-2.1-2.1h-37.72c-1.16,0-2.1.94-2.1,2.1h0v25.14c0,1.16.94,2.1,2.1,2.1h4.19v12.58l6.29-6.29,6.29-6.29h8.38v-10.48h0Z"/>
        <path class="cls-6" d="M123.18,40.9c-.41,0-.81-.12-1.16-.35-1.69-1.12-3.43-2.15-5.22-3.09-1.02-.54-1.42-1.8-.88-2.83.54-1.02,1.8-1.42,2.83-.88,1.92,1.01,3.79,2.11,5.59,3.31.96.64,1.23,1.94.59,2.91-.39.59-1.04.94-1.75.94ZM106.94,33.29c-.2,0-.4-.03-.6-.09-3.62-1.07-7.33-1.79-11.08-2.15-1.15-.11-2-1.14-1.89-2.29.11-1.15,1.14-1.99,2.29-1.89,4.02.39,8,1.16,11.87,2.31,1.11.33,1.74,1.5,1.41,2.61-.27.89-1.08,1.5-2.01,1.5ZM72.29,33.28c-.93,0-1.74-.61-2.01-1.5-.33-1.11.3-2.28,1.41-2.61,3.88-1.15,7.85-1.92,11.88-2.31,1.15-.11,2.18.74,2.28,1.89.11,1.15-.74,2.18-1.89,2.28-3.75.36-7.46,1.08-11.08,2.15-.19.06-.4.09-.6.09ZM56.03,40.9c-.7,0-1.36-.35-1.75-.94-.64-.96-.38-2.27.59-2.91,1.81-1.2,3.67-2.3,5.59-3.31,1.02-.54,2.29-.14,2.83.88s.14,2.29-.88,2.83c-1.79.94-3.54,1.97-5.22,3.09-.34.23-.74.35-1.16.35ZM141.76,122.77c-.38,0-.75-.1-1.08-.3-.99-.6-1.31-1.88-.72-2.88,1.04-1.74,1.99-3.52,2.85-5.36.49-1.05,1.74-1.5,2.79-1.01,1.05.49,1.5,1.74,1.01,2.79-.92,1.97-1.94,3.88-3.05,5.74-.39.66-1.08,1.02-1.8,1.02h0ZM149.52,101.85c-.12,0-.24,0-.35-.03-1.14-.2-1.91-1.28-1.71-2.42.56-3.28.84-6.61.84-9.94,0-1.87-.09-3.75-.27-5.6-.11-1.15.74-2.18,1.89-2.28,1.16-.1,2.18.74,2.28,1.89.53,5.55.32,11.14-.61,16.64-.17,1.02-1.06,1.74-2.06,1.74h0ZM146.47,70.07c-.87,0-1.65-.54-1.96-1.35-.72-1.89-1.53-3.75-2.44-5.55-.52-1.03-.1-2.29.93-2.81h0c1.03-.52,2.29-.1,2.81.93.97,1.94,1.85,3.92,2.62,5.95.41,1.08-.13,2.29-1.21,2.7-.24.09-.49.14-.75.14h0ZM32.75,70.07c-.25,0-.5-.05-.74-.14-1.08-.41-1.63-1.62-1.22-2.7,0,0,0,0,0,0,.77-2.03,1.64-4.01,2.62-5.95.52-1.03,1.78-1.45,2.81-.93,1.03.52,1.45,1.78.93,2.81-.91,1.81-1.72,3.66-2.44,5.55-.31.82-1.09,1.35-1.96,1.35h0ZM29.69,101.84c-1.02,0-1.89-.74-2.06-1.74-.93-5.5-1.14-11.09-.61-16.64.11-1.15,1.14-1.98,2.28-1.89,1.15.11,2,1.13,1.89,2.29-.18,1.87-.26,3.74-.26,5.61,0,3.33.28,6.67.84,9.92.2,1.14-.57,2.22-1.71,2.42-.12.02-.24.03-.35.03ZM37.45,122.77c-.74,0-1.42-.39-1.8-1.02-1.12-1.86-2.13-3.78-3.05-5.74-.49-1.05-.04-2.3,1.01-2.79,1.05-.49,2.3-.04,2.79,1.01.86,1.83,1.81,3.62,2.85,5.36.6.99.27,2.28-.72,2.88,0,0,0,0,0,0-.32.2-.69.3-1.07.3h0ZM68.11,148.42c-.25,0-.5-.05-.74-.14-2.03-.77-4.02-1.64-5.95-2.62-1.03-.52-1.45-1.78-.93-2.81,0,0,0,0,0,0,.52-1.03,1.78-1.45,2.81-.93,1.81.91,3.66,1.72,5.55,2.44,1.08.41,1.63,1.62,1.22,2.7-.31.81-1.09,1.35-1.96,1.35h0ZM89.61,152.35c-2.52,0-5.07-.15-7.57-.45-1.15-.14-1.97-1.18-1.83-2.33.14-1.15,1.18-1.97,2.33-1.83,0,0,0,0,0,0,4.66.56,9.46.56,14.1,0,1.15-.14,2.19.68,2.33,1.83,0,0,0,0,0,0,.14,1.15-.68,2.19-1.83,2.33-2.5.3-5.02.45-7.53.45ZM111.1,148.42c-.87,0-1.65-.54-1.96-1.35-.41-1.08.13-2.29,1.22-2.7,0,0,0,0,0,0,1.89-.72,3.75-1.53,5.55-2.44,1.03-.52,2.29-.1,2.81.93.52,1.03.1,2.29-.93,2.81h0c-1.94.97-3.93,1.85-5.95,2.62-.24.09-.49.14-.74.14h0Z"/>
        <path class="cls-5" d="M142.01,133.48h-.05c1.33-1.76,2.14-3.92,2.14-6.29,0-5.79-4.69-10.48-10.48-10.48s-10.48,4.69-10.48,10.48c0,2.37.82,4.53,2.14,6.29h-.05c-4.63,0-8.38,3.75-8.38,8.38v8.39h33.54v-8.39c0-4.63-3.75-8.38-8.38-8.38h0ZM53.98,133.48h-.05c1.33-1.76,2.14-3.92,2.14-6.29,0-5.79-4.69-10.48-10.48-10.48s-10.48,4.69-10.48,10.48c0,2.37.82,4.53,2.14,6.29h-.05c-4.63,0-8.38,3.75-8.38,8.38v8.39h33.54v-8.39c0-4.63-3.75-8.38-8.38-8.38ZM53.98,45.45h-.05c1.33-1.76,2.14-3.92,2.14-6.29,0-5.79-4.69-10.48-10.48-10.48s-10.48,4.69-10.48,10.48c0,2.37.82,4.53,2.14,6.29h-.05c-4.63,0-8.38,3.75-8.38,8.38v8.39h33.54v-8.39c0-4.63-3.75-8.38-8.38-8.38ZM142.01,45.45h-.05c1.33-1.76,2.14-3.92,2.14-6.29,0-5.79-4.69-10.48-10.48-10.48s-10.48,4.69-10.48,10.48c0,2.37.82,4.53,2.14,6.29h-.05c-4.63,0-8.38,3.75-8.38,8.38v8.39h33.54v-8.39c0-4.63-3.75-8.38-8.38-8.38h0Z"/>
        <circle class="cls-2" cx="45.59" cy="39.16" r="10.48"/>
        <path class="cls-5" d="M53.98,45.45h-.05c-1.91,2.53-4.92,4.19-8.34,4.19s-6.42-1.66-8.34-4.19h-.05c-4.63,0-8.38,3.75-8.38,8.38v8.39h33.54v-8.39c0-4.63-3.75-8.38-8.38-8.38Z"/>
        <circle class="cls-2" cx="133.62" cy="39.16" r="10.48"/>
        <path class="cls-5" d="M142.01,45.45h-.05c-1.91,2.53-4.92,4.19-8.34,4.19s-6.42-1.66-8.34-4.19h-.05c-4.63,0-8.38,3.75-8.38,8.38v8.39h33.54v-8.39c0-4.63-3.75-8.38-8.38-8.38h0Z"/>
        <circle class="cls-2" cx="45.59" cy="127.2" r="10.48"/>
        <path class="cls-5" d="M53.98,133.48h-.05c-1.91,2.53-4.92,4.19-8.34,4.19s-6.42-1.66-8.34-4.19h-.05c-4.63,0-8.38,3.75-8.38,8.38v8.39h33.54v-8.39c0-4.63-3.75-8.38-8.38-8.38Z"/>
        <circle class="cls-2" cx="133.62" cy="127.2" r="10.48"/>
        <path class="cls-5" d="M142.01,133.48h-.05c-1.91,2.53-4.92,4.19-8.34,4.19s-6.42-1.66-8.34-4.19h-.05c-4.63,0-8.38,3.75-8.38,8.38v8.39h33.54v-8.39c0-4.63-3.75-8.38-8.38-8.38h0Z"/>
        <path class="cls-6" d="M79.13,85.28v25.14c0,1.16.94,2.1,2.1,2.1h20.96l6.29,6.29,6.29,6.29v-12.58h4.19c1.16,0,2.1-.94,2.1-2.1h0v-25.14c0-1.16-.94-2.1-2.1-2.1h-37.72c-1.16,0-2.1.94-2.1,2.1h0s0,0,0,0Z"/>
        <path class="cls-1" d="M100.09,95.76h-12.58c-1.16,0-2.1-.94-2.1-2.1s.94-2.1,2.1-2.1h12.58c1.16,0,2.1.94,2.1,2.1,0,1.16-.94,2.1-2.1,2.1ZM112.66,95.76h-4.19c-1.16,0-2.1-.94-2.1-2.1s.94-2.1,2.1-2.1h4.19c1.16,0,2.1.94,2.1,2.1,0,1.16-.94,2.1-2.1,2.1h0ZM112.66,104.14h-12.58c-1.16,0-2.1-.94-2.1-2.1s.94-2.1,2.1-2.1h12.58c1.16,0,2.1.94,2.1,2.1s-.94,2.1-2.1,2.1ZM91.7,104.14h-4.19c-1.16,0-2.1-.94-2.1-2.1s.94-2.1,2.1-2.1h4.19c1.16,0,2.1.94,2.1,2.1s-.94,2.1-2.1,2.1Z"/>
      </g>
    </g>
  </g>
</svg>