<?xml version="1.0" encoding="UTF-8"?>
<svg id="_レイヤー_2" data-name="レイヤー 2" xmlns="http://www.w3.org/2000/svg" viewBox="0 0 179.21 179.21">
  <defs>
    <style>
      .cls-1 {
        fill: #c5bbb3;
      }

      .cls-2 {
        fill: #807d7c;
      }

      .cls-3 {
        fill: #655347;
      }

      .cls-4 {
        fill: none;
      }

      .cls-5 {
        fill: #dfd6ce;
      }

      .cls-6 {
        fill: #e29554;
      }
    </style>
  </defs>
  <g id="_レイヤー_1-2" data-name="レイヤー 1">
    <g>
      <rect class="cls-4" width="179.21" height="179.21"/>
      <g>
        <path class="cls-3" d="M149.1,37.98l-10.48-10.48c-.49-.49-1.16-.77-1.85-.77H37.21c-.69,0-1.36.28-1.85.77l-5.24,5.24c-.49.49-.77,1.16-.77,1.85v110.04c0,.69.28,1.36.77,1.85l5.24,5.24c.49.49,1.16.77,1.85.77h7.86v-70.74c0-1.45,1.17-2.62,2.62-2.62h83.84c1.45,0,2.62,1.17,2.62,2.62v70.74h7.86c.7,0,1.36-.27,1.85-.77l5.24-5.24c.49-.49.77-1.16.77-1.85V39.83c0-.69-.28-1.36-.77-1.85Z"/>
        <path class="cls-5" d="M126.29,73.89H52.93c-4.34,0-7.86,3.52-7.86,7.86v70.74h89.08v-70.74c0-4.34-3.52-7.86-7.86-7.86h0Z"/>
        <path class="cls-1" d="M121.05,26.73h-57.64c-1.45,0-2.62,1.17-2.62,2.62v31.44c0,4.34,3.52,7.86,7.86,7.86h47.16c4.34,0,7.86-3.52,7.86-7.86v-31.44c0-1.45-1.17-2.62-2.62-2.62Z"/>
        <path class="cls-2" d="M86.99,26.73h26.2v41.92h-26.2V26.73Z"/>
        <path class="cls-6" d="M116.8,103.98c-.46-1.37-1.95-2.11-3.32-1.64-.06.02-.12.04-.18.07-1.27.58-2.77.03-3.35-1.24-.51-1.11-.15-2.42.84-3.12,1.16-.87,1.39-2.51.52-3.67-.04-.05-.08-.1-.12-.15-4.13-4.78-9.73-8.05-15.92-9.3-.72-.15-1.48.01-2.07.46-.59.44-.97,1.11-1.05,1.84-.06,1.4-1.25,2.48-2.64,2.41-1.31-.06-2.35-1.11-2.41-2.41-.08-.73-.46-1.4-1.05-1.84-.59-.44-1.35-.61-2.07-.46-6.19,1.25-11.79,4.52-15.92,9.3-.95,1.09-.85,2.74.24,3.7.05.04.1.08.15.12,1.14.8,1.41,2.38.61,3.52-.7.99-2.01,1.35-3.12.84-.67-.3-1.43-.3-2.1,0-.67.3-1.18.87-1.41,1.57-2.17,5.94-2.17,12.46,0,18.4.46,1.37,1.95,2.11,3.32,1.64.06-.02.12-.04.18-.07,1.27-.58,2.77-.03,3.35,1.24.51,1.11.15,2.42-.84,3.12-1.16.87-1.39,2.51-.52,3.67.04.05.08.1.12.15,4.13,4.78,9.73,8.05,15.92,9.3,1.42.3,2.8-.61,3.1-2.03.02-.09.03-.18.04-.27.07-1.4,1.25-2.47,2.65-2.41,1.3.06,2.35,1.1,2.41,2.41.14,1.34,1.27,2.36,2.62,2.35.18,0,.35-.02.52-.05,6.19-1.25,11.79-4.52,15.92-9.3.95-1.09.85-2.74-.24-3.7-.05-.04-.1-.08-.15-.12-1.14-.8-1.41-2.38-.61-3.52.7-.99,2.01-1.35,3.12-.84,1.33.57,2.87-.06,3.44-1.39.03-.06.05-.12.07-.18,2.17-5.94,2.17-12.46,0-18.4h-.05,0ZM89.61,126.29c-7.23,0-13.1-5.87-13.1-13.1s5.87-13.1,13.1-13.1,13.1,5.87,13.1,13.1-5.87,13.1-13.1,13.1Z"/>
      </g>
    </g>
  </g>
</svg>