<?xml version="1.0" encoding="UTF-8"?>
<svg id="_レイヤー_2" data-name="レイヤー 2" xmlns="http://www.w3.org/2000/svg" viewBox="0 0 179.21 179.21">
  <defs>
    <style>
      .cls-1 {
        fill: #7c6f64;
      }

      .cls-2 {
        fill: none;
      }

      .cls-3 {
        fill: #e6d2c1;
      }

      .cls-4 {
        fill: #e29554;
      }
    </style>
  </defs>
  <g id="_レイヤー_1-2" data-name="レイヤー 1">
    <g>
      <rect class="cls-2" width="179.21" height="179.21"/>
      <g>
        <g>
          <rect class="cls-3" x="44.42" y="81.07" width="36.48" height="40.2"/>
          <path class="cls-1" d="M76.13,127.77h-26.94c-4.96,0-8.98-4.02-8.98-8.98v26.94c0,.36.03.71.07,1.06.01.11.03.21.05.32.04.25.09.51.15.75.03.11.05.21.08.32.08.29.18.58.29.86.02.05.03.09.05.14.14.33.29.64.47.94.02.03.03.06.04.09h.01c1.55,2.68,4.45,4.49,7.77,4.49h26.94c3.32,0,6.22-1.81,7.77-4.49h.01s.03-.06.04-.09c.17-.3.33-.62.47-.94.02-.04.03-.09.05-.14.11-.28.21-.57.29-.86.03-.11.06-.21.08-.32.06-.25.11-.5.15-.75.02-.11.04-.21.05-.32.04-.35.07-.7.07-1.06v-26.94c0,4.96-4.02,8.98-8.98,8.98Z"/>
          <path class="cls-1" d="M85.12,31.23v51.64c0-4.96-4.02-8.98-8.98-8.98h-4.49V31.23c0-3.72,3.02-6.74,6.74-6.74s6.74,3.02,6.74,6.74Z"/>
          <path class="cls-4" d="M76.13,73.89h-26.94c-4.96,0-8.98,4.02-8.98,8.98v4.49h-4.49c-2.48,0-4.49,2.01-4.49,4.49v4.49c0,2.48,2.01,4.49,4.49,4.49h4.49v17.96c0,4.96,4.02,8.98,8.98,8.98h26.94c4.96,0,8.98-4.02,8.98-8.98v-35.92c0-4.96-4.02-8.98-8.98-8.98ZM58.17,116.55c0,1.24-1.01,2.25-2.25,2.25h-4.49c-1.24,0-2.25-1.01-2.25-2.25v-4.49c0-1.24,1.01-2.25,2.25-2.25h4.49c1.24,0,2.25,1.01,2.25,2.25v4.49ZM76.13,116.55c0,1.24-1.01,2.25-2.25,2.25h-4.49c-1.24,0-2.25-1.01-2.25-2.25v-4.49c0-1.24,1.01-2.25,2.25-2.25h4.49c1.24,0,2.25,1.01,2.25,2.25v4.49ZM76.13,96.34c0,2.48-2.01,4.49-4.49,4.49h-17.96c-2.48,0-4.49-2.01-4.49-4.49v-8.98c0-2.48,2.01-4.49,4.49-4.49h17.96c2.48,0,4.49,2.01,4.49,4.49v8.98Z"/>
        </g>
        <g>
          <rect class="cls-3" x="107.29" y="81.07" width="36.48" height="40.2"/>
          <path class="cls-1" d="M139,127.77h-26.94c-4.96,0-8.98-4.02-8.98-8.98v26.94c0,.36.03.71.07,1.06.01.11.03.21.05.32.04.25.09.51.15.75.03.11.05.21.08.32.08.29.18.58.29.86.02.05.03.09.05.14.14.33.29.64.47.94.02.03.03.06.04.09h.01c1.55,2.68,4.45,4.49,7.77,4.49h26.94c3.32,0,6.22-1.81,7.77-4.49h.01s.03-.06.04-.09c.17-.3.33-.62.47-.94.02-.04.03-.09.05-.14.11-.28.21-.57.29-.86.03-.11.06-.21.08-.32.06-.25.11-.5.15-.75.02-.11.04-.21.05-.32.04-.35.07-.7.07-1.06v-26.94c0,4.96-4.02,8.98-8.98,8.98Z"/>
          <path class="cls-1" d="M147.98,31.23v51.64c0-4.96-4.02-8.98-8.98-8.98h-4.49V31.23c0-3.72,3.02-6.74,6.74-6.74s6.74,3.02,6.74,6.74Z"/>
          <path class="cls-4" d="M139,73.89h-26.94c-4.96,0-8.98,4.02-8.98,8.98v4.49h-4.49c-2.48,0-4.49,2.01-4.49,4.49v4.49c0,2.48,2.01,4.49,4.49,4.49h4.49v17.96c0,4.96,4.02,8.98,8.98,8.98h26.94c4.96,0,8.98-4.02,8.98-8.98v-35.92c0-4.96-4.02-8.98-8.98-8.98ZM121.04,116.55c0,1.24-1.01,2.25-2.25,2.25h-4.49c-1.24,0-2.25-1.01-2.25-2.25v-4.49c0-1.24,1.01-2.25,2.25-2.25h4.49c1.24,0,2.25,1.01,2.25,2.25v4.49ZM139,116.55c0,1.24-1.01,2.25-2.25,2.25h-4.49c-1.24,0-2.25-1.01-2.25-2.25v-4.49c0-1.24,1.01-2.25,2.25-2.25h4.49c1.24,0,2.25,1.01,2.25,2.25v4.49ZM139,96.34c0,2.48-2.01,4.49-4.49,4.49h-17.96c-2.48,0-4.49-2.01-4.49-4.49v-8.98c0-2.48,2.01-4.49,4.49-4.49h17.96c2.48,0,4.49,2.01,4.49,4.49v8.98Z"/>
        </g>
      </g>
    </g>
  </g>
</svg>